<?xml version="1.0" encoding="UTF-8" standalone="no"?>
<!DOCTYPE svg PUBLIC "-//W3C//DTD SVG 1.1//EN" "http://www.w3.org/Graphics/SVG/1.1/DTD/svg11.dtd">
<svg width="100%" height="100%" viewBox="0 0 1530 1530" version="1.1" xmlns="http://www.w3.org/2000/svg" xmlns:xlink="http://www.w3.org/1999/xlink" xml:space="preserve" xmlns:serif="http://www.serif.com/" style="fill-rule:evenodd;clip-rule:evenodd;stroke-linejoin:round;stroke-miterlimit:2;">
    <g transform="matrix(1,0,0,1,-96.896449,-304.753788)">
        <g transform="matrix(0.980213,0,0,0.922634,17.054405,76.128562)">
            <rect x="81.454" y="247.796" width="1560.885" height="1658.295" style="fill:none;"/>
        </g>
        <g transform="matrix(2.235289,0,0,2.235289,-1998.948631,-4233.918415)">
            <path d="M1185.365,2461.002L1039.644,2600.63C984.707,2541.851 951.062,2462.924 951.062,2376.202C951.062,2334.5 958.842,2294.602 973.027,2257.879C976.974,2258.658 981.053,2259.066 985.226,2259.066C1019.881,2259.066 1048.016,2230.93 1048.016,2196.275C1048.016,2181.596 1042.968,2168.087 1034.515,2157.39C1087.787,2097.702 1162.49,2057.545 1246.486,2049.055C1255.458,2053.999 1265.765,2056.813 1276.725,2056.813C1288.051,2056.813 1298.681,2053.808 1307.86,2048.552C1338.287,2051.12 1367.54,2057.839 1395.05,2068.14L1314.522,2275.506C1265.01,2245.687 1215.003,2227.403 1174.207,2222.849C1139.684,2218.995 1111.694,2225.025 1095.837,2241.874C1079.874,2258.835 1078.357,2284.305 1089.177,2313.617C1104.358,2354.742 1143.87,2403.596 1200.465,2446.532L1185.365,2461.002ZM1042.473,2500.559C1032.751,2500.559 1024.857,2508.452 1024.857,2518.175C1024.857,2527.898 1032.751,2535.791 1042.473,2535.791C1052.196,2535.791 1060.09,2527.898 1060.09,2518.175C1060.09,2508.452 1052.196,2500.559 1042.473,2500.559ZM1255.047,2113.46C1249.929,2113.46 1245.775,2117.614 1245.775,2122.732C1245.775,2127.849 1249.929,2132.004 1255.047,2132.004C1260.164,2132.004 1264.319,2127.849 1264.319,2122.732C1264.319,2117.614 1260.164,2113.46 1255.047,2113.46ZM1209.648,2158.034C1199.925,2158.034 1192.032,2165.928 1192.032,2175.65C1192.032,2185.373 1199.925,2193.267 1209.648,2193.267C1219.371,2193.267 1227.264,2185.373 1227.264,2175.65C1227.264,2165.928 1219.371,2158.034 1209.648,2158.034ZM1115.577,2140.359C1101.867,2140.359 1090.735,2151.491 1090.735,2165.201C1090.735,2178.912 1101.867,2190.044 1115.577,2190.044C1129.288,2190.044 1140.42,2178.912 1140.42,2165.201C1140.42,2151.491 1129.288,2140.359 1115.577,2140.359ZM1044.411,2359.556C1026.775,2359.556 1012.456,2373.874 1012.456,2391.51C1012.456,2409.147 1026.775,2423.465 1044.411,2423.465C1062.047,2423.465 1076.365,2409.147 1076.365,2391.51C1076.365,2373.874 1062.047,2359.556 1044.411,2359.556ZM1106.965,2440.383C1101.847,2440.383 1097.693,2444.537 1097.693,2449.655C1097.693,2454.772 1101.847,2458.927 1106.965,2458.927C1112.082,2458.927 1116.237,2454.772 1116.237,2449.655C1116.237,2444.537 1112.082,2440.383 1106.965,2440.383ZM1299.777,2227.103C1294.66,2227.103 1290.505,2231.258 1290.505,2236.376C1290.505,2241.493 1294.66,2245.648 1299.777,2245.648C1304.895,2245.648 1309.05,2241.493 1309.05,2236.376C1309.05,2231.258 1304.895,2227.103 1299.777,2227.103ZM1001.609,2441.288C996.491,2441.288 992.336,2445.443 992.336,2450.561C992.336,2455.678 996.491,2459.833 1001.609,2459.833C1006.726,2459.833 1010.881,2455.678 1010.881,2450.561C1010.881,2445.443 1006.726,2441.288 1001.609,2441.288ZM989.055,2314.017C983.938,2314.017 979.783,2318.171 979.783,2323.289C979.783,2328.406 983.938,2332.561 989.055,2332.561C994.173,2332.561 998.327,2328.406 998.327,2323.289C998.327,2318.171 994.173,2314.017 989.055,2314.017ZM1299.01,2141.452C1292.454,2141.452 1287.13,2146.776 1287.13,2153.332C1287.13,2159.889 1292.454,2165.212 1299.01,2165.212C1305.567,2165.212 1310.89,2159.889 1310.89,2153.332C1310.89,2146.776 1305.567,2141.452 1299.01,2141.452ZM1166.323,2100.762C1161.205,2100.762 1157.05,2104.917 1157.05,2110.035C1157.05,2115.152 1161.205,2119.307 1166.323,2119.307C1171.44,2119.307 1175.595,2115.152 1175.595,2110.035C1175.595,2104.917 1171.44,2100.762 1166.323,2100.762ZM1311.288,2087.028C1306.17,2087.028 1302.016,2091.183 1302.016,2096.301C1302.016,2101.418 1306.17,2105.573 1311.288,2105.573C1316.405,2105.573 1320.56,2101.418 1320.56,2096.301C1320.56,2091.183 1316.405,2087.028 1311.288,2087.028ZM1203.191,2443.92C1147.02,2401.417 1107.716,2353.073 1092.675,2312.326C1082.441,2284.601 1083.453,2260.472 1098.552,2244.429C1113.758,2228.272 1140.688,2222.859 1173.794,2226.554C1214.819,2231.133 1265.233,2249.784 1314.997,2280.151C1315.769,2280.622 1316.541,2281.095 1317.312,2281.572C1322.708,2284.905 1328.094,2288.376 1333.458,2291.982C1334.16,2292.453 1334.862,2292.928 1335.563,2293.404C1340.109,2296.493 1344.638,2299.678 1349.141,2302.958C1350.086,2303.646 1351.026,2304.336 1351.962,2305.027C1353.115,2305.879 1354.262,2306.734 1355.401,2307.591C1412.203,2350.309 1451.953,2399.045 1467.1,2440.078C1477.334,2467.802 1476.322,2491.931 1461.222,2507.975C1446.017,2524.131 1419.087,2529.545 1385.981,2525.849C1345.463,2521.326 1295.786,2503.078 1246.622,2473.373L1271.291,2409.848C1285.794,2418.176 1300.281,2423.28 1312.222,2424.613C1323.323,2425.852 1332.291,2423.786 1337.39,2418.368C1342.595,2412.838 1343.236,2404.546 1339.708,2394.988C1334.762,2381.588 1321.556,2365.524 1302.605,2351.722C1301.253,2350.737 1299.893,2349.78 1298.528,2348.85C1297.755,2348.324 1296.98,2347.806 1296.203,2347.297C1279.211,2336.161 1261.616,2329.36 1247.553,2327.79C1236.452,2326.551 1227.483,2328.617 1222.385,2334.035C1217.179,2339.566 1216.539,2347.857 1220.067,2357.415C1224.571,2369.618 1235.925,2384.031 1252.23,2396.931L1203.191,2443.92ZM1245.253,2476.897C1294.764,2506.716 1344.772,2525 1385.567,2529.554C1420.09,2533.408 1448.081,2527.378 1463.937,2510.53C1479.901,2493.568 1481.417,2468.098 1470.597,2438.787C1455.417,2397.661 1415.905,2348.807 1359.309,2305.871L1520.13,2151.774C1573.662,2209.049 1606.977,2285.454 1608.647,2369.562C1586.714,2379.358 1571.414,2401.369 1571.414,2426.924C1571.414,2446.12 1580.047,2463.316 1593.638,2474.837C1556.461,2593.054 1454.256,2682.57 1329.038,2701.371C1317.721,2690.342 1302.262,2683.545 1285.228,2683.545C1267.547,2683.545 1251.563,2690.868 1240.147,2702.645C1213.936,2699.482 1188.67,2693.23 1164.725,2684.264L1228.58,2519.832L1245.253,2476.897ZM1361.752,2564.625C1352.029,2564.625 1344.136,2572.519 1344.136,2582.242C1344.136,2591.964 1352.029,2599.858 1361.752,2599.858C1371.475,2599.858 1379.368,2591.964 1379.368,2582.242C1379.368,2572.519 1371.475,2564.625 1361.752,2564.625ZM1280.703,2528.603C1273.173,2528.603 1267.06,2534.716 1267.06,2542.246C1267.06,2549.775 1273.173,2555.888 1280.703,2555.888C1288.232,2555.888 1294.345,2549.775 1294.345,2542.246C1294.345,2534.716 1288.232,2528.603 1280.703,2528.603ZM1523.327,2195.626C1516.305,2195.626 1510.604,2201.327 1510.604,2208.349C1510.604,2215.371 1516.305,2221.072 1523.327,2221.072C1530.349,2221.072 1536.05,2215.371 1536.05,2208.349C1536.05,2201.327 1530.349,2195.626 1523.327,2195.626ZM1516.865,2444.748C1510.556,2444.748 1505.433,2449.871 1505.433,2456.18C1505.433,2462.489 1510.556,2467.612 1516.865,2467.612C1523.174,2467.612 1528.296,2462.489 1528.296,2456.18C1528.296,2449.871 1523.174,2444.748 1516.865,2444.748ZM1536.402,2288.416C1526.68,2288.416 1518.786,2296.31 1518.786,2306.032C1518.786,2315.755 1526.68,2323.649 1536.402,2323.649C1546.125,2323.649 1554.019,2315.755 1554.019,2306.032C1554.019,2296.31 1546.125,2288.416 1536.402,2288.416ZM1491.608,2335.258C1487.239,2335.258 1483.692,2338.804 1483.692,2343.173C1483.692,2347.542 1487.239,2351.088 1491.608,2351.088C1495.976,2351.088 1499.523,2347.542 1499.523,2343.173C1499.523,2338.804 1495.976,2335.258 1491.608,2335.258ZM1532.087,2367.71C1526.969,2367.71 1522.815,2371.864 1522.815,2376.982C1522.815,2382.099 1526.969,2386.254 1532.087,2386.254C1537.204,2386.254 1541.359,2382.099 1541.359,2376.982C1541.359,2371.864 1537.204,2367.71 1532.087,2367.71ZM1351.447,2646.629C1346.329,2646.629 1342.175,2650.784 1342.175,2655.902C1342.175,2661.019 1346.329,2665.174 1351.447,2665.174C1356.564,2665.174 1360.719,2661.019 1360.719,2655.902C1360.719,2650.784 1356.564,2646.629 1351.447,2646.629ZM1246.728,2607.32C1241.61,2607.32 1237.455,2611.475 1237.455,2616.592C1237.455,2621.71 1241.61,2625.864 1246.728,2625.864C1251.845,2625.864 1256,2621.71 1256,2616.592C1256,2611.475 1251.845,2607.32 1246.728,2607.32ZM1435.557,2267.878C1422.278,2267.878 1411.497,2278.659 1411.497,2291.938C1411.497,2305.217 1422.278,2315.998 1435.557,2315.998C1448.836,2315.998 1459.617,2305.217 1459.617,2291.938C1459.617,2278.659 1448.836,2267.878 1435.557,2267.878ZM1481.673,2562.283C1467.962,2562.283 1456.83,2573.415 1456.83,2587.126C1456.83,2600.837 1467.962,2611.968 1481.673,2611.968C1495.384,2611.968 1506.515,2600.837 1506.515,2587.126C1506.515,2573.415 1495.384,2562.283 1481.673,2562.283ZM1254.947,2394.328C1239.064,2381.859 1227.929,2367.949 1223.564,2356.124C1220.622,2348.153 1220.758,2341.203 1225.099,2336.59C1229.547,2331.864 1237.456,2330.414 1247.139,2331.495C1258.831,2332.8 1273.025,2337.88 1287.216,2346.123L1276.338,2373.832L1254.947,2394.328ZM1283.437,2378.571L1304.788,2358.045C1320.692,2370.521 1331.842,2384.444 1336.211,2396.279C1339.153,2404.251 1339.017,2411.201 1334.675,2415.813C1330.228,2420.539 1322.319,2421.989 1312.635,2420.908C1300.971,2419.606 1286.814,2414.546 1272.655,2406.336L1283.437,2378.571ZM1272.96,2390.137L1264.397,2402.904C1263.967,2403.545 1263.098,2403.716 1262.457,2403.286C1261.816,2402.856 1261.645,2401.987 1262.075,2401.346L1270.638,2388.579C1271.068,2387.939 1271.937,2387.767 1272.578,2388.197C1273.219,2388.627 1273.39,2389.496 1272.96,2390.137ZM1429.504,2049.857C1428.802,2049.536 1428.494,2048.706 1428.815,2048.004L1435.131,2034.211C1435.452,2033.51 1436.283,2033.201 1436.984,2033.522C1437.686,2033.844 1437.995,2034.674 1437.673,2035.375L1431.357,2049.168C1431.036,2049.87 1430.205,2050.179 1429.504,2049.857ZM1416.871,2077.443C1416.17,2077.122 1415.861,2076.292 1416.182,2075.59L1423.762,2059.039C1424.083,2058.337 1424.913,2058.028 1425.615,2058.35C1426.316,2058.671 1426.625,2059.501 1426.304,2060.203L1418.724,2076.754C1418.403,2077.456 1417.573,2077.765 1416.871,2077.443ZM1409.292,2093.995C1408.59,2093.674 1408.281,2092.843 1408.603,2092.142L1411.129,2086.625C1411.45,2085.923 1412.281,2085.614 1412.982,2085.936C1413.684,2086.257 1413.993,2087.087 1413.671,2087.789L1411.145,2093.306C1410.823,2094.008 1409.993,2094.316 1409.292,2093.995ZM1391.606,2132.616C1390.904,2132.295 1390.595,2131.464 1390.917,2130.763L1403.549,2103.177C1403.871,2102.475 1404.701,2102.166 1405.403,2102.488C1406.104,2102.809 1406.413,2103.639 1406.092,2104.341L1393.459,2131.927C1393.138,2132.628 1392.307,2132.937 1391.606,2132.616ZM1378.973,2160.202C1378.271,2159.881 1377.963,2159.05 1378.284,2158.349L1385.864,2141.797C1386.185,2141.095 1387.015,2140.787 1387.717,2141.108C1388.418,2141.429 1388.727,2142.259 1388.406,2142.961L1380.826,2159.513C1380.505,2160.214 1379.675,2160.523 1378.973,2160.202ZM1371.393,2176.753C1370.692,2176.432 1370.383,2175.602 1370.704,2174.9L1373.231,2169.383C1373.552,2168.681 1374.383,2168.373 1375.084,2168.694C1375.786,2169.015 1376.094,2169.846 1375.773,2170.547L1373.247,2176.064C1372.925,2176.766 1372.095,2177.075 1371.393,2176.753ZM1353.708,2215.374C1353.006,2215.052 1352.697,2214.222 1353.019,2213.521L1365.651,2185.934C1365.973,2185.233 1366.803,2184.924 1367.505,2185.245C1368.206,2185.567 1368.515,2186.397 1368.194,2187.099L1355.561,2214.685C1355.24,2215.386 1354.409,2215.695 1353.708,2215.374ZM1341.075,2242.96C1340.373,2242.639 1340.065,2241.809 1340.386,2241.107L1347.965,2224.555C1348.287,2223.854 1349.117,2223.545 1349.819,2223.866C1350.52,2224.188 1350.829,2225.018 1350.508,2225.719L1342.928,2242.271C1342.607,2242.973 1341.776,2243.281 1341.075,2242.96ZM1333.495,2259.512C1332.794,2259.19 1332.485,2258.36 1332.806,2257.659L1335.333,2252.141C1335.654,2251.44 1336.484,2251.131 1337.186,2251.452C1337.888,2251.773 1338.196,2252.604 1337.875,2253.305L1335.348,2258.823C1335.027,2259.524 1334.197,2259.833 1333.495,2259.512ZM1323.605,2281.11C1323.207,2280.859 1322.809,2280.608 1322.411,2280.358L1327.753,2268.693C1328.074,2267.992 1328.905,2267.683 1329.606,2268.004C1330.308,2268.325 1330.617,2269.156 1330.295,2269.857L1324.796,2281.865C1324.399,2281.613 1324.002,2281.361 1323.605,2281.11ZM1208.741,2449.674C1209.27,2449.112 1210.155,2449.085 1210.717,2449.614C1211.279,2450.143 1211.306,2451.029 1210.777,2451.59L1206.586,2456.043C1206.057,2456.605 1205.172,2456.632 1204.61,2456.103C1204.048,2455.574 1204.021,2454.689 1204.55,2454.127L1208.741,2449.674ZM1196.168,2463.032C1196.697,2462.47 1197.583,2462.443 1198.145,2462.972C1198.706,2463.501 1198.733,2464.386 1198.204,2464.948L1185.632,2478.306C1185.103,2478.868 1184.217,2478.895 1183.656,2478.366C1183.094,2477.837 1183.067,2476.952 1183.596,2476.39L1196.168,2463.032ZM1175.214,2485.295C1175.743,2484.733 1176.628,2484.707 1177.19,2485.235C1177.752,2485.764 1177.779,2486.65 1177.25,2487.212L1156.296,2509.475C1155.767,2510.037 1154.881,2510.063 1154.319,2509.535C1153.757,2509.006 1153.731,2508.12 1154.259,2507.558L1175.214,2485.295ZM1145.878,2516.463C1146.407,2515.901 1147.292,2515.875 1147.854,2516.403C1148.416,2516.932 1148.443,2517.818 1147.914,2518.38L1143.723,2522.832C1143.194,2523.394 1142.309,2523.421 1141.747,2522.892C1141.185,2522.363 1141.158,2521.478 1141.687,2520.916L1145.878,2516.463ZM1133.305,2529.821C1133.834,2529.259 1134.72,2529.232 1135.282,2529.761C1135.843,2530.29 1135.87,2531.176 1135.341,2531.737L1122.769,2545.095C1122.24,2545.657 1121.354,2545.684 1120.793,2545.155C1120.231,2544.626 1120.204,2543.741 1120.733,2543.179L1133.305,2529.821ZM1112.351,2552.084C1112.88,2551.522 1113.766,2551.495 1114.327,2552.024C1114.889,2552.553 1114.916,2553.439 1114.387,2554L1093.433,2576.264C1092.904,2576.825 1092.019,2576.852 1091.457,2576.323C1090.895,2575.795 1090.868,2574.909 1091.397,2574.347L1112.351,2552.084ZM1083.015,2583.253C1083.544,2582.691 1084.429,2582.664 1084.991,2583.193C1085.553,2583.722 1085.58,2584.607 1085.051,2585.169L1080.86,2589.622C1080.331,2590.183 1079.446,2590.21 1078.884,2589.681C1078.322,2589.153 1078.295,2588.267 1078.824,2587.705L1083.015,2583.253ZM1070.443,2596.61C1070.971,2596.049 1071.857,2596.022 1072.419,2596.551C1072.981,2597.079 1073.007,2597.965 1072.479,2598.527L1059.906,2611.885C1059.377,2612.446 1058.492,2612.473 1057.93,2611.944C1057.368,2611.416 1057.341,2610.53 1057.87,2609.968L1070.443,2596.61ZM1049.488,2618.873C1050.017,2618.312 1050.903,2618.285 1051.464,2618.814C1052.026,2619.342 1052.053,2620.228 1051.524,2620.79L1041.047,2631.921C1040.518,2632.483 1039.633,2632.51 1039.071,2631.981C1038.509,2631.452 1038.482,2630.567 1039.011,2630.005L1049.488,2618.873ZM1239.841,2461.751C1240.162,2461.049 1240.992,2460.74 1241.694,2461.062C1242.395,2461.383 1242.704,2462.213 1242.383,2462.915L1236.066,2476.708C1235.745,2477.409 1234.915,2477.718 1234.213,2477.397C1233.512,2477.076 1233.203,2476.245 1233.524,2475.544L1239.841,2461.751ZM1228.471,2486.578C1228.792,2485.877 1229.623,2485.568 1230.324,2485.889C1231.026,2486.21 1231.335,2487.041 1231.013,2487.742L1228.487,2493.26C1228.165,2493.961 1227.335,2494.27 1226.634,2493.949C1225.932,2493.627 1225.623,2492.797 1225.945,2492.095L1228.471,2486.578ZM1220.892,2503.13C1221.213,2502.428 1222.043,2502.119 1222.745,2502.441C1223.446,2502.762 1223.755,2503.592 1223.434,2504.294L1215.854,2520.846C1215.533,2521.547 1214.702,2521.856 1214.001,2521.535C1213.299,2521.213 1212.991,2520.383 1213.312,2519.681L1220.892,2503.13ZM1208.259,2530.716C1208.58,2530.015 1209.41,2529.706 1210.112,2530.027C1210.813,2530.348 1211.122,2531.179 1210.801,2531.88L1198.168,2559.466C1197.847,2560.168 1197.017,2560.477 1196.315,2560.155C1195.613,2559.834 1195.305,2559.004 1195.626,2558.302L1208.259,2530.716ZM1190.573,2569.336C1190.894,2568.635 1191.725,2568.326 1192.426,2568.647C1193.128,2568.969 1193.436,2569.799 1193.115,2570.501L1190.589,2576.018C1190.267,2576.719 1189.437,2577.028 1188.735,2576.707C1188.034,2576.386 1187.725,2575.555 1188.046,2574.854L1190.573,2569.336ZM1182.993,2585.888C1183.315,2585.186 1184.145,2584.878 1184.847,2585.199C1185.548,2585.52 1185.857,2586.351 1185.536,2587.052L1177.956,2603.604C1177.635,2604.305 1176.804,2604.614 1176.103,2604.293C1175.401,2603.972 1175.092,2603.141 1175.414,2602.44L1182.993,2585.888ZM1170.361,2613.474C1170.682,2612.772 1171.512,2612.464 1172.214,2612.785C1172.915,2613.106 1173.224,2613.937 1172.903,2614.638L1160.27,2642.224C1159.949,2642.926 1159.119,2643.235 1158.417,2642.913C1157.715,2642.592 1157.407,2641.762 1157.728,2641.06L1170.361,2613.474ZM1152.675,2652.095C1152.996,2651.393 1153.826,2651.085 1154.528,2651.406C1155.23,2651.727 1155.538,2652.557 1155.217,2653.259L1152.69,2658.776C1152.369,2659.478 1151.539,2659.786 1150.837,2659.465C1150.136,2659.144 1149.827,2658.314 1150.148,2657.612L1152.675,2652.095ZM1145.095,2668.646C1145.416,2667.945 1146.247,2667.636 1146.948,2667.957C1147.65,2668.279 1147.959,2669.109 1147.637,2669.811L1140.058,2686.362C1139.737,2687.064 1138.906,2687.372 1138.205,2687.051C1137.503,2686.73 1137.194,2685.9 1137.516,2685.198L1145.095,2668.646ZM1132.463,2696.232C1132.784,2695.531 1133.614,2695.222 1134.316,2695.543C1135.017,2695.865 1135.326,2696.695 1135.005,2697.397L1128.688,2711.19C1128.367,2711.891 1127.537,2712.2 1126.835,2711.879C1126.134,2711.557 1125.825,2710.727 1126.146,2710.025L1132.463,2696.232ZM1255.224,2411.559C1255.654,2410.919 1256.523,2410.747 1257.164,2411.177C1257.805,2411.607 1257.976,2412.476 1257.546,2413.117L1254.121,2418.224C1253.691,2418.865 1252.822,2419.036 1252.181,2418.606C1251.54,2418.176 1251.369,2417.307 1251.799,2416.666L1255.224,2411.559ZM1244.948,2426.88C1245.378,2426.239 1246.247,2426.068 1246.888,2426.497C1247.528,2426.927 1247.7,2427.796 1247.27,2428.437L1236.994,2443.757C1236.564,2444.398 1235.695,2444.569 1235.054,2444.14C1234.413,2443.71 1234.242,2442.841 1234.672,2442.2L1244.948,2426.88ZM1227.821,2452.413C1228.251,2451.772 1229.12,2451.601 1229.761,2452.031C1230.402,2452.461 1230.573,2453.33 1230.143,2453.971L1213.016,2479.505C1212.586,2480.145 1211.717,2480.317 1211.076,2479.887C1210.435,2479.457 1210.264,2478.588 1210.694,2477.947L1227.821,2452.413ZM1203.843,2488.16C1204.273,2487.519 1205.142,2487.348 1205.783,2487.778C1206.424,2488.208 1206.595,2489.077 1206.165,2489.718L1202.74,2494.824C1202.31,2495.465 1201.441,2495.636 1200.8,2495.207C1200.159,2494.777 1199.988,2493.908 1200.418,2493.267L1203.843,2488.16ZM1193.567,2503.481C1193.997,2502.84 1194.866,2502.669 1195.507,2503.098C1196.148,2503.528 1196.319,2504.397 1195.889,2505.038L1185.613,2520.359C1185.183,2520.999 1184.314,2521.171 1183.673,2520.741C1183.032,2520.311 1182.861,2519.442 1183.291,2518.801L1193.567,2503.481ZM1176.44,2529.014C1176.87,2528.374 1177.739,2528.202 1178.38,2528.632C1179.021,2529.062 1179.192,2529.931 1178.762,2530.572L1161.635,2556.105C1161.205,2556.746 1160.336,2556.917 1159.695,2556.488C1159.055,2556.058 1158.883,2555.188 1159.313,2554.548L1176.44,2529.014ZM1152.462,2564.761C1152.892,2564.12 1153.761,2563.949 1154.402,2564.379C1155.043,2564.809 1155.214,2565.678 1154.784,2566.319L1151.359,2571.426C1150.929,2572.066 1150.06,2572.238 1149.419,2571.808C1148.778,2571.378 1148.607,2570.509 1149.037,2569.868L1152.462,2564.761ZM1142.186,2580.082C1142.616,2579.441 1143.485,2579.27 1144.126,2579.699C1144.767,2580.129 1144.938,2580.998 1144.508,2581.639L1134.232,2596.959C1133.802,2597.6 1132.933,2597.771 1132.292,2597.342C1131.651,2596.912 1131.48,2596.042 1131.91,2595.402L1142.186,2580.082ZM1125.059,2605.615C1125.489,2604.974 1126.358,2604.803 1126.999,2605.233C1127.64,2605.663 1127.811,2606.532 1127.381,2607.173L1110.254,2632.707C1109.824,2633.347 1108.955,2633.519 1108.314,2633.089C1107.674,2632.659 1107.502,2631.79 1107.932,2631.149L1125.059,2605.615ZM1101.081,2641.362C1101.511,2640.721 1102.38,2640.55 1103.021,2640.98C1103.662,2641.41 1103.833,2642.279 1103.403,2642.92L1099.978,2648.027C1099.548,2648.667 1098.679,2648.839 1098.038,2648.409C1097.397,2647.979 1097.226,2647.11 1097.656,2646.469L1101.081,2641.362ZM1090.805,2656.683C1091.235,2656.042 1092.104,2655.87 1092.745,2656.3C1093.386,2656.73 1093.557,2657.599 1093.127,2658.24L1082.851,2673.56C1082.421,2674.201 1081.552,2674.372 1080.911,2673.942C1080.271,2673.513 1080.099,2672.643 1080.529,2672.003L1090.805,2656.683ZM1158.42,2526.747C1158.902,2526.145 1159.782,2526.046 1160.385,2526.528C1160.988,2527.01 1161.086,2527.89 1160.605,2528.493L1149.817,2541.993C1149.335,2542.596 1148.455,2542.694 1147.852,2542.212C1147.249,2541.731 1147.151,2540.85 1147.633,2540.247L1158.42,2526.747ZM1139.002,2551.047C1139.484,2550.445 1140.364,2550.346 1140.967,2550.828C1141.57,2551.31 1141.668,2552.19 1141.186,2552.793L1136.871,2558.193C1136.39,2558.796 1135.509,2558.894 1134.906,2558.412C1134.304,2557.931 1134.205,2557.05 1134.687,2556.447L1139.002,2551.047ZM1126.057,2567.247C1126.538,2566.644 1127.419,2566.546 1128.022,2567.028C1128.624,2567.51 1128.723,2568.39 1128.241,2568.993L1115.296,2585.193C1114.814,2585.796 1113.933,2585.894 1113.331,2585.412C1112.728,2584.931 1112.63,2584.05 1113.111,2583.447L1126.057,2567.247ZM1104.481,2594.248C1104.962,2593.645 1105.843,2593.546 1106.446,2594.028C1107.048,2594.51 1107.147,2595.39 1106.665,2595.993L1085.089,2622.993C1084.607,2623.596 1083.727,2623.694 1083.124,2623.212C1082.521,2622.731 1082.423,2621.85 1082.905,2621.248L1104.481,2594.248ZM1074.275,2632.047C1074.756,2631.444 1075.637,2631.346 1076.24,2631.828C1076.842,2632.31 1076.941,2633.19 1076.459,2633.793L1072.144,2639.193C1071.662,2639.796 1070.782,2639.894 1070.179,2639.412C1069.576,2638.931 1069.478,2638.05 1069.959,2637.447L1074.275,2632.047ZM1061.329,2648.247C1061.811,2647.644 1062.691,2647.546 1063.294,2648.028C1063.897,2648.509 1063.995,2649.39 1063.514,2649.993L1050.568,2666.193C1050.086,2666.796 1049.206,2666.894 1048.603,2666.412C1048,2665.931 1047.902,2665.05 1048.384,2664.447L1061.329,2648.247ZM1169.361,2573.849C1169.735,2573.174 1170.587,2572.93 1171.261,2573.305C1171.936,2573.679 1172.18,2574.531 1171.805,2575.205L1160.226,2596.069C1159.852,2596.744 1159,2596.988 1158.325,2596.613C1157.651,2596.239 1157.407,2595.387 1157.781,2594.712L1169.361,2573.849ZM1150.062,2608.622C1150.436,2607.947 1151.288,2607.703 1151.963,2608.078C1152.638,2608.452 1152.881,2609.304 1152.507,2609.978L1140.928,2630.843C1140.553,2631.517 1139.701,2631.761 1139.027,2631.387C1138.352,2631.012 1138.108,2630.16 1138.483,2629.486L1150.062,2608.622ZM1126.904,2650.35C1127.278,2649.675 1128.13,2649.431 1128.804,2649.806C1129.479,2650.18 1129.723,2651.032 1129.348,2651.707L1113.91,2679.525C1113.535,2680.2 1112.683,2680.443 1112.009,2680.069C1111.334,2679.695 1111.09,2678.843 1111.465,2678.168L1126.904,2650.35ZM1355.079,2295.727C1354.55,2296.289 1353.664,2296.315 1353.103,2295.787C1352.541,2295.258 1352.514,2294.372 1353.043,2293.81L1357.234,2289.358C1357.762,2288.796 1358.648,2288.769 1359.21,2289.298C1359.772,2289.827 1359.799,2290.712 1359.27,2291.274L1355.079,2295.727ZM1367.651,2282.369C1367.122,2282.931 1366.237,2282.958 1365.675,2282.429C1365.113,2281.9 1365.086,2281.014 1365.615,2280.453L1378.188,2267.095C1378.717,2266.533 1379.602,2266.506 1380.164,2267.035C1380.726,2267.564 1380.753,2268.449 1380.224,2269.011L1367.651,2282.369ZM1388.606,2260.106C1388.077,2260.667 1387.191,2260.694 1386.63,2260.165C1386.068,2259.637 1386.041,2258.751 1386.57,2258.189L1407.524,2235.926C1408.053,2235.364 1408.938,2235.337 1409.5,2235.866C1410.062,2236.395 1410.089,2237.281 1409.56,2237.842L1388.606,2260.106ZM1417.942,2228.937C1417.413,2229.499 1416.527,2229.526 1415.965,2228.997C1415.404,2228.468 1415.377,2227.583 1415.906,2227.021L1420.096,2222.568C1420.625,2222.007 1421.511,2221.98 1422.073,2222.509C1422.635,2223.037 1422.661,2223.923 1422.133,2224.485L1417.942,2228.937ZM1430.514,2215.58C1429.985,2216.142 1429.1,2216.168 1428.538,2215.639C1427.976,2215.111 1427.949,2214.225 1428.478,2213.663L1441.051,2200.305C1441.58,2199.743 1442.465,2199.717 1443.027,2200.246C1443.589,2200.774 1443.616,2201.66 1443.087,2202.222L1430.514,2215.58ZM1451.468,2193.317C1450.939,2193.879 1450.054,2193.905 1449.492,2193.377C1448.93,2192.848 1448.903,2191.962 1449.432,2191.4L1470.387,2169.137C1470.915,2168.575 1471.801,2168.549 1472.363,2169.077C1472.925,2169.606 1472.951,2170.492 1472.423,2171.054L1451.468,2193.317ZM1480.805,2162.148C1480.276,2162.71 1479.39,2162.737 1478.828,2162.208C1478.266,2161.679 1478.24,2160.794 1478.768,2160.232L1482.959,2155.779C1483.488,2155.217 1484.374,2155.191 1484.936,2155.719C1485.497,2156.248 1485.524,2157.134 1484.995,2157.696L1480.805,2162.148ZM1493.377,2148.79C1492.848,2149.352 1491.963,2149.379 1491.401,2148.85C1490.839,2148.321 1490.812,2147.436 1491.341,2146.874L1503.914,2133.516C1504.442,2132.954 1505.328,2132.928 1505.89,2133.456C1506.452,2133.985 1506.478,2134.871 1505.95,2135.433L1493.377,2148.79ZM1514.331,2126.527C1513.802,2127.089 1512.917,2127.116 1512.355,2126.587C1511.793,2126.058 1511.766,2125.173 1512.295,2124.611L1522.772,2113.48C1523.301,2112.918 1524.187,2112.891 1524.749,2113.42C1525.31,2113.949 1525.337,2114.834 1524.808,2115.396L1514.331,2126.527ZM1296.452,2351.946L1293.181,2356.821C1292.752,2357.462 1291.882,2357.634 1291.242,2357.204C1290.601,2356.774 1290.429,2355.905 1290.859,2355.264L1294.127,2350.392C1294.903,2350.901 1295.678,2351.419 1296.452,2351.946ZM1335.43,2288.816L1350.804,2265.896C1351.233,2265.255 1352.103,2265.084 1352.743,2265.514C1353.384,2265.944 1353.555,2266.813 1353.126,2267.454L1337.747,2290.381C1336.975,2289.857 1336.203,2289.335 1335.43,2288.816ZM1359.976,2257.241C1359.546,2257.881 1358.677,2258.053 1358.036,2257.623C1357.396,2257.193 1357.224,2256.324 1357.654,2255.683L1361.08,2250.576C1361.509,2249.936 1362.379,2249.764 1363.019,2250.194C1363.66,2250.624 1363.831,2251.493 1363.402,2252.134L1359.976,2257.241ZM1370.253,2241.92C1369.823,2242.561 1368.954,2242.732 1368.313,2242.302C1367.672,2241.873 1367.501,2241.003 1367.931,2240.363L1378.207,2225.042C1378.637,2224.401 1379.506,2224.23 1380.147,2224.66C1380.787,2225.09 1380.959,2225.959 1380.529,2226.6L1370.253,2241.92ZM1387.38,2216.386C1386.95,2217.027 1386.081,2217.199 1385.44,2216.769C1384.799,2216.339 1384.628,2215.47 1385.058,2214.829L1402.184,2189.296C1402.614,2188.655 1403.483,2188.483 1404.124,2188.913C1404.765,2189.343 1404.936,2190.212 1404.506,2190.853L1387.38,2216.386ZM1411.357,2180.64C1410.927,2181.28 1410.058,2181.452 1409.417,2181.022C1408.777,2180.592 1408.605,2179.723 1409.035,2179.082L1412.461,2173.975C1412.89,2173.334 1413.76,2173.163 1414.4,2173.593C1415.041,2174.023 1415.213,2174.892 1414.783,2175.533L1411.357,2180.64ZM1421.633,2165.319C1421.204,2165.96 1420.334,2166.131 1419.694,2165.701C1419.053,2165.272 1418.882,2164.402 1419.311,2163.762L1429.588,2148.442C1430.017,2147.801 1430.887,2147.629 1431.527,2148.059C1432.168,2148.489 1432.339,2149.358 1431.91,2149.999L1421.633,2165.319ZM1438.76,2139.786C1438.331,2140.426 1437.461,2140.598 1436.821,2140.168C1436.18,2139.738 1436.009,2138.869 1436.438,2138.228L1453.565,2112.694C1453.995,2112.053 1454.864,2111.882 1455.505,2112.312C1456.146,2112.742 1456.317,2113.611 1455.888,2114.252L1438.76,2139.786ZM1462.738,2104.039C1462.308,2104.679 1461.439,2104.851 1460.798,2104.421C1460.158,2103.991 1459.986,2103.122 1460.416,2102.481L1463.842,2097.374C1464.271,2096.733 1465.141,2096.562 1465.781,2096.992C1466.422,2097.422 1466.593,2098.291 1466.164,2098.932L1462.738,2104.039ZM1473.014,2088.718C1472.585,2089.359 1471.715,2089.53 1471.075,2089.101C1470.434,2088.671 1470.262,2087.801 1470.692,2087.161L1480.968,2071.841C1481.398,2071.2 1482.267,2071.029 1482.908,2071.458C1483.549,2071.888 1483.72,2072.757 1483.29,2073.398L1473.014,2088.718ZM1405.399,2218.653C1404.918,2219.256 1404.037,2219.354 1403.434,2218.873C1402.832,2218.391 1402.733,2217.511 1403.215,2216.908L1415.87,2201.072C1416.351,2200.469 1417.232,2200.371 1417.835,2200.852C1418.437,2201.334 1418.536,2202.214 1418.054,2202.817L1405.399,2218.653ZM1428.178,2190.148C1427.696,2190.751 1426.816,2190.849 1426.213,2190.367C1425.61,2189.886 1425.512,2189.005 1425.994,2188.402L1431.056,2182.068C1431.537,2181.465 1432.418,2181.367 1433.02,2181.849C1433.623,2182.33 1433.722,2183.211 1433.24,2183.814L1428.178,2190.148ZM1443.364,2171.144C1442.882,2171.747 1442.002,2171.846 1441.399,2171.364C1440.796,2170.882 1440.698,2170.002 1441.179,2169.399L1456.365,2150.395C1456.847,2149.793 1457.727,2149.694 1458.33,2150.176C1458.933,2150.658 1459.031,2151.538 1458.55,2152.141L1443.364,2171.144ZM1468.673,2139.472C1468.192,2140.075 1467.311,2140.173 1466.708,2139.691C1466.106,2139.21 1466.007,2138.329 1466.489,2137.727L1491.799,2106.054C1492.28,2105.451 1493.161,2105.353 1493.764,2105.835C1494.366,2106.316 1494.465,2107.197 1493.983,2107.8L1468.673,2139.472ZM1504.107,2095.13C1503.625,2095.733 1502.745,2095.832 1502.142,2095.35C1501.539,2094.868 1501.441,2093.988 1501.923,2093.385L1506.985,2087.051C1507.466,2086.448 1508.347,2086.349 1508.949,2086.831C1509.552,2087.313 1509.651,2088.193 1509.169,2088.796L1504.107,2095.13ZM1394.459,2171.552C1394.085,2172.227 1393.233,2172.471 1392.558,2172.096C1391.884,2171.722 1391.64,2170.87 1392.014,2170.195L1403.593,2149.332C1403.968,2148.657 1404.82,2148.413 1405.494,2148.788C1406.169,2149.162 1406.413,2150.014 1406.038,2150.688L1394.459,2171.552ZM1413.758,2136.779C1413.383,2137.454 1412.531,2137.698 1411.857,2137.323C1411.182,2136.949 1410.938,2136.097 1411.313,2135.422L1422.892,2114.558C1423.266,2113.884 1424.118,2113.64 1424.793,2114.014C1425.467,2114.389 1425.711,2115.24 1425.337,2115.915L1413.758,2136.779ZM1436.916,2095.051C1436.542,2095.726 1435.69,2095.969 1435.015,2095.595C1434.341,2095.221 1434.097,2094.369 1434.471,2093.694L1449.91,2065.876C1450.284,2065.201 1451.136,2064.957 1451.811,2065.332C1452.485,2065.706 1452.729,2066.558 1452.355,2067.233L1436.916,2095.051Z"/>
        </g>
    </g>
</svg>
